<svg xmlns="http://www.w3.org/2000/svg" xmlns:xlink="http://www.w3.org/1999/xlink" width="48" height="48" viewBox="0 0 12.7 12.7"><defs><filter id="e" x="-.012" width="1.024" y="-.708" height="2.416" color-interpolation-filters="sRGB"><feGaussianBlur stdDeviation=".06"/></filter><linearGradient id="a"><stop stop-color="#ff6d00" offset="0"/><stop stop-color="#ff00c2" offset="1"/></linearGradient><linearGradient xlink:href="#a" id="b" x1="2.646" y1="289.063" x2="11.906" y2="295.677" gradientUnits="userSpaceOnUse"/><linearGradient xlink:href="#a" id="c" gradientUnits="userSpaceOnUse" x1="2.646" y1="289.063" x2="11.906" y2="295.677" gradientTransform="translate(.318 14.565) scale(.94994)"/><linearGradient xlink:href="#a" id="d" gradientUnits="userSpaceOnUse" x1="2.646" y1="289.063" x2="11.906" y2="295.677" gradientTransform="translate(.318 14.565) scale(.94994)"/></defs><g fill="none" stroke="url(#b)" stroke-width=".397" transform="translate(0 -284.3)"><path d="M11.377 287.899v-1.064 0-.193H6.35l-.754-.754H1.323v2.764" stroke="url(#c)"/><path d="M5.345 287.899l-1.006.753H.821v7.29H11.88v-7.038 0-1.005z" stroke="url(#d)"/></g><path d="M.62 296.532v.203h11.437v-.203H.823z" transform="translate(.253 -274.393) scale(.96534)" fill-opacity=".235" filter="url(#e)"/><path d="M17.853 2.29c-1.188-.041-2.307 1.106-3.038 1.62-.876-.266-2.144-.414-3.097-.42a11.755 11.755 0 0 0-3.207.42c-.968-.456-1.928-1.646-3.015-1.594-.617 1.612-.226 2.803-.11 3.098-.727.818-.839 1.865-.839 3.142 0 4.488 2.322 5.492 4.847 5.788-.325.291-.522.81-.626 1.566-.647.301-1.895 1.113-2.91-.675 0 0-.163-1.304-1.305-1.386 0 0-2.478.077-1.446.805 0 0 1.422.147 1.94 1.5 0 0 .538 2.279 3.7 1.57 0 .261.064 2.513.064 2.513l3.392.033 2.584-.116s.365-1.874.365-2.42c0-1.092-.794-3.037-1.202-3.399 2.532-.289 5.008-1.28 5.008-5.779 0-1.278-.08-2.323-.808-3.142.117-.295.507-1.486-.113-3.1 0 0-.06-.018-.184-.024z" fill="url(#b)" transform="matrix(.25 0 0 .25 3.875 5)"/></svg>