<svg xmlns="http://www.w3.org/2000/svg" xmlns:xlink="http://www.w3.org/1999/xlink" width="48" height="48" viewBox="0 0 12.7 12.7"><defs><filter id="e" x="-.012" width="1.024" y="-.708" height="2.416" color-interpolation-filters="sRGB"><feGaussianBlur stdDeviation=".06"/></filter><linearGradient id="a"><stop stop-color="#ff6d00" offset="0"/><stop stop-color="#ff00c2" offset="1"/></linearGradient><linearGradient xlink:href="#a" id="b" x1="2.646" y1="289.063" x2="11.906" y2="295.677" gradientUnits="userSpaceOnUse"/><linearGradient xlink:href="#a" id="c" gradientUnits="userSpaceOnUse" x1="2.646" y1="289.063" x2="11.906" y2="295.677" gradientTransform="translate(.318 14.565) scale(.94994)"/><linearGradient xlink:href="#a" id="d" gradientUnits="userSpaceOnUse" x1="2.646" y1="289.063" x2="11.906" y2="295.677" gradientTransform="translate(.318 14.565) scale(.94994)"/></defs><g fill="none" stroke="url(#b)" stroke-width=".397" transform="translate(0 -284.3)"><path d="M11.377 287.899v-1.064 0-.193H6.35l-.754-.754H1.323v2.764" stroke="url(#c)"/><path d="M5.345 287.899l-1.006.753H.821v7.29H11.88v-7.038 0-1.005z" stroke="url(#d)"/></g><path d="M.62 296.532v.203h11.437v-.203H.823z" transform="translate(.253 -274.393) scale(.96534)" fill-opacity=".235" filter="url(#e)"/><g fill="url(#b)" transform="matrix(.25 0 0 .25 3.875 5)"><path d="M7 8v1H6v1h1v1h1v-1h1V9H8V8zm7.5 1.9a.6.6 0 0 0-.6.6.6.6 0 0 0 .6.6.6.6 0 0 0 .6-.6.6.6 0 0 0-.6-.6zm1-1a.6.6 0 0 0-.6.6.6.6 0 0 0 .6.6.6.6 0 0 0 .6-.6.6.6 0 0 0-.6-.6zm-2 0a.6.6 0 0 0-.6.6.6.6 0 0 0 .6.6.6.6 0 0 0 .6-.6.6.6 0 0 0-.6-.6zm1-1a.6.6 0 0 0-.6.6.6.6 0 0 0 .6.6.6.6 0 0 0 .6-.6.6.6 0 0 0-.6-.6z"/><path d="M6 6c-1.657 0-3 2.239-3 5v3.5a1.5 1.5 0 0 0 2.56 1.06l2.536-2.535A1.5 1.5 0 0 0 11 12.5a1.5 1.5 0 0 0 2.904.525l2.535 2.536A1.5 1.5 0 0 0 19 14.5V11c0-2.761-1.343-5-3-5zm0 1h10c1.105 0 2 1.79 2 4v3.5a.5.5 0 0 1-.854.354L14.293 12H13v.5a.5.5 0 0 1-1 0V12h-2v.5a.5.5 0 0 1-1 0V12H7.707l-2.853 2.854A.5.5 0 0 1 4 14.5V11c0-2.21.895-4 2-4z"/></g></svg>