<svg xmlns="http://www.w3.org/2000/svg" xmlns:xlink="http://www.w3.org/1999/xlink" width="48" height="48" viewBox="0 0 12.7 12.7"><defs><filter id="e" x="-.012" width="1.024" y="-.708" height="2.416" color-interpolation-filters="sRGB"><feGaussianBlur stdDeviation=".06"/></filter><linearGradient id="a"><stop stop-color="#ff6d00" offset="0"/><stop stop-color="#ff00c2" offset="1"/></linearGradient><linearGradient xlink:href="#a" id="b" x1="2.646" y1="289.063" x2="11.906" y2="295.677" gradientUnits="userSpaceOnUse"/><linearGradient xlink:href="#a" id="c" gradientUnits="userSpaceOnUse" x1="2.646" y1="289.063" x2="11.906" y2="295.677" gradientTransform="translate(.318 14.565) scale(.94994)"/><linearGradient xlink:href="#a" id="d" gradientUnits="userSpaceOnUse" x1="2.646" y1="289.063" x2="11.906" y2="295.677" gradientTransform="translate(.318 14.565) scale(.94994)"/></defs><g fill="none" stroke="url(#b)" stroke-width=".397" transform="translate(0 -284.3)"><path d="M11.377 287.899v-1.064 0-.193H6.35l-.754-.754H1.323v2.764" stroke="url(#c)"/><path d="M5.345 287.899l-1.006.753H.821v7.29H11.88v-7.038 0-1.005z" stroke="url(#d)"/></g><path d="M.62 296.532v.203h11.437v-.203H.823z" transform="translate(.253 -274.393) scale(.96534)" fill-opacity=".235" filter="url(#e)"/><g fill="none" stroke="url(#b)" stroke-width="1.021" stroke-linecap="round" stroke-linejoin="round" transform="matrix(.25 0 0 .25 3.875 5)"><path d="M7.456 2.266l-5.22 3.367L5.953 8.42l5.18-3.075zM16.5 8.768l-5.296 3.19 3.646 2.98 5.255-3.427zM5.95 14.08v1.73l5.299 3.125"/><path d="M14.943 2.272l-3.671 3.074 5.187 3.126 3.642-2.828zM5.951 8.849L2.32 11.541l5.191 3.401c1.215-.959 2.44-2.138 3.693-2.985zm5.299 10.088l5.144-3.155.024-.538-.024-1.329-1.515 1.108-3.675-3.066"/></g></svg>