<svg xmlns="http://www.w3.org/2000/svg" xmlns:xlink="http://www.w3.org/1999/xlink" width="48" height="48" viewBox="0 0 12.7 12.7"><defs><filter id="e" x="-.012" width="1.024" y="-.708" height="2.416" color-interpolation-filters="sRGB"><feGaussianBlur stdDeviation=".06"/></filter><linearGradient id="a"><stop stop-color="#ff6d00" offset="0"/><stop stop-color="#ff00c2" offset="1"/></linearGradient><linearGradient xlink:href="#a" id="b" x1="2.646" y1="289.063" x2="11.906" y2="295.677" gradientUnits="userSpaceOnUse"/><linearGradient xlink:href="#a" id="c" gradientUnits="userSpaceOnUse" x1="2.646" y1="289.063" x2="11.906" y2="295.677" gradientTransform="translate(.318 14.565) scale(.94994)"/><linearGradient xlink:href="#a" id="d" gradientUnits="userSpaceOnUse" x1="2.646" y1="289.063" x2="11.906" y2="295.677" gradientTransform="translate(.318 14.565) scale(.94994)"/></defs><g fill="none" stroke="url(#b)" stroke-width=".397" transform="translate(0 -284.3)"><path d="M11.377 287.899v-1.064 0-.193H6.35l-.754-.754H1.323v2.764" stroke="url(#c)"/><path d="M5.345 287.899l-1.006.753H.821v7.29H11.88v-7.038 0-1.005z" stroke="url(#d)"/></g><path d="M.62 296.532v.203h11.437v-.203H.823z" transform="translate(.253 -274.393) scale(.96534)" fill-opacity=".235" filter="url(#e)"/><path d="M11 3a8 3 0 0 0-8 3v10a8 3 0 0 0 8 3 8 3 0 0 0 8-3V6a8 3 0 0 0-8-3zm0 1a7 2 0 0 1 7 2 7 2 0 0 1-7 2 7 2 0 0 1-7-2 7 2 0 0 1 7-2zm7 3.445V11a7 2 0 0 1-7 2 7 2 0 0 1-7-2V7.451A8 3 0 0 0 11 9a8 3 0 0 0 7-1.555zm0 5V16a7 2 0 0 1-7 2 7 2 0 0 1-7-2v-3.549A8 3 0 0 0 11 14a8 3 0 0 0 7-1.555z" fill="url(#b)" transform="matrix(.25 0 0 .25 3.875 5)"/></svg>