<svg xmlns="http://www.w3.org/2000/svg" xmlns:xlink="http://www.w3.org/1999/xlink" width="48" height="48" viewBox="0 0 12.7 12.7"><defs><filter id="e" x="-.012" width="1.024" y="-.708" height="2.416" color-interpolation-filters="sRGB"><feGaussianBlur stdDeviation=".06"/></filter><linearGradient id="a"><stop stop-color="#ff6d00" offset="0"/><stop stop-color="#ff00c2" offset="1"/></linearGradient><linearGradient xlink:href="#a" id="b" x1="2.646" y1="289.063" x2="11.906" y2="295.677" gradientUnits="userSpaceOnUse"/><linearGradient xlink:href="#a" id="c" gradientUnits="userSpaceOnUse" x1="2.646" y1="289.063" x2="11.906" y2="295.677" gradientTransform="translate(.318 14.565) scale(.94994)"/><linearGradient xlink:href="#a" id="d" gradientUnits="userSpaceOnUse" x1="2.646" y1="289.063" x2="11.906" y2="295.677" gradientTransform="translate(.318 14.565) scale(.94994)"/></defs><g fill="none" stroke="url(#b)" stroke-width=".397" transform="translate(0 -284.3)"><path d="M11.377 287.899v-1.064 0-.193H6.35l-.754-.754H1.323v2.764" stroke="url(#c)"/><path d="M5.345 287.899l-1.006.753H.821v7.29H11.88v-7.038 0-1.005z" stroke="url(#d)"/></g><path d="M.62 296.532v.203h11.437v-.203H.823z" transform="translate(.253 -274.393) scale(.96534)" fill-opacity=".235" filter="url(#e)"/><path d="M11 3l-.707.707L3 11l.707.707.293-.293V19h14v-7.586l.293.293L19 11l-2-2-.707.707.707.707V18h-4v-5H9v5H5v-7.586l6-6 1.293 1.293L13 5l-1.293-1.293zm3 2v3h2V5z" fill="url(#b)" transform="matrix(.25 0 0 .25 3.875 5)"/></svg>